<svg width="10" height="9" viewBox="0 0 76.567 65.654" xmlns="http://www.w3.org/2000/svg"><path d="M5.902 65.22c-1.127-1.312-.884-1.932 2.048-5.232 2.73-3.073 4.02-5 5.131-7.67 1.421-3.413 1.465-3.229-1.179-4.988C6.39 43.66 2.318 38.537.622 33.133.088 31.438 0 30.606 0 27.319s.09-4.12.621-5.815C3.961 10.867 15.52 2.7 30.427.444c3.923-.594 11.688-.594 15.61 0C55.55 1.883 63.653 5.656 69.355 11.3c3.696 3.658 5.695 7.059 6.756 11.494.712 2.978.576 7.669-.303 10.477-4.14 13.22-21.109 22.308-40.025 21.44l-3.904-.18-1.388 1.175c-3.792 3.209-9.495 6.311-14.882 8.096-5.444 1.804-8.938 2.315-9.708 1.418z" fill="#003452"/></svg>