<svg width="99" height="70" viewBox="0 0 99 70" fill="none" xmlns="http://www.w3.org/2000/svg">
<path d="M63.6801 31.0376C66.5597 32.4995 66.6091 36.5951 63.7657 38.1261L43.8964 48.825C41.2315 50.26 38 48.3298 38 45.3031V24.5168C38 21.5325 41.1498 19.5991 43.8108 20.9501L63.6801 31.0376Z" fill="#D9D9D9"/>
<path d="M96.1022 6.009C92.4926 1.74097 85.8281 0 73.1003 0H26.8987C13.8797 0 7.10226 1.85327 3.50613 6.39724C0 10.8276 0 17.3555 0 26.3901V43.6102C0 61.1132 4.16 70 26.8987 70H73.1006C84.1381 70 90.2542 68.4637 94.211 64.6972C98.2687 60.8347 100 54.5283 100 43.6102V26.3901C100 16.8623 99.7287 10.296 96.1022 6.009ZM64.2003 37.3775L43.2203 48.2838C42.7513 48.5276 42.2384 48.6486 41.7261 48.6486C41.1461 48.6486 40.5674 48.4933 40.0548 48.1846C39.0897 47.6029 38.5003 46.5624 38.5003 45.44V23.6975C38.5003 22.5771 39.0881 21.5375 40.0513 20.9555C41.0148 20.3734 42.2132 20.3336 43.2129 20.8502L64.1929 31.6862C65.2603 32.2374 65.9306 33.3335 65.9323 34.5293C65.9335 35.7261 65.2661 36.8237 64.2003 37.3775Z" fill="#811F00"/>
</svg>
