<svg width="2655" height="190" viewBox="0 0 2655 190" fill="none" xmlns="http://www.w3.org/2000/svg">
<path d="M684.809 45.133C719.038 37.644 791.179 45.229 843.644 42.949C868.761 41.857 893.833 38.252 918.973 42.245C981.689 52.207 995.651 77.419 1018.68 79.722C1026.97 37.001 1040.43 42.828 1056.56 43.169C1074.97 43.971 1082.91 66.754 1079.18 82.293C1060.19 94.29 1073.84 74.715 1058.52 58.57C1024.76 56.827 1034.8 86.975 1040.69 92.966C1064.05 116.73 1127.16 133.491 1140.03 88.708C1132.68 89.51 1125.24 92.745 1117.83 91.086C1065.68 55.28 1169.01 4.946 1167.85 97.528C1167.71 108.826 1252.15 3.349 1318.29 52.53C1342.27 70.36 1343.78 27.124 1402.57 44.165C1448.14 57.372 1468.84 89.673 1489 94.514C1491.24 75.49 1489.83 55.279 1515.82 45.961C1557.49 37.506 1575.44 104.337 1515.65 86.219C1513.82 117.135 1561.38 133.036 1597.66 109.472C1605.87 104.108 1616.35 99.961 1620 90.034C1625.25 79.085 1621.58 62.301 1609.03 58.43C1599.38 57.379 1598.52 70.209 1592.6 75.324C1588.09 75.545 1581.68 75.96 1579.66 70.872C1579.15 50.588 1602.39 37.788 1620.19 45.257C1644.3 55.368 1633.79 76.407 1640.82 85.36C1642.42 87.393 1686.74 63.986 1691.73 62.019C1786.78 24.587 1950.78 43.804 2047.58 78.669C2065.16 86.687 2084.6 91.277 2104.01 90.697C2115.99 91.661 2105.96 67.137 2085.4 69.075C2077.58 69.711 2069.89 71.259 2062.12 71.978C2062.76 68.605 2063.61 65.287 2064.66 62.024C2076.5 55.029 2091.51 57.628 2104.18 60.89C2116.87 64.512 2121.15 77.618 2127.48 87.627C2161.31 94.714 2155.55 58.284 2186.4 75.733C2220.1 94.796 2599.76 82.164 2602.52 83.131C2610.96 86.081 2605.33 96.354 2604.97 102.502C2605.13 99.707 2276.65 98.81 2231.61 99.461C2196.5 99.968 2195.9 106.467 2182.53 114.658C2159.33 128.866 2140.31 85.754 2121.9 105.849C2089.67 141.016 2027.14 130.63 1984.96 107.98C1968.22 98.996 1950.12 89.299 1930.62 88.568C1931.57 105.353 1939.04 124.09 1922.06 135.904C1894.93 154.781 1871.11 117.566 1893.19 93.851C1897.15 89.599 1904.63 87.626 1904.46 80.854C1869.43 42.325 1805.42 69.262 1794.39 86.496C1849.35 81.948 1854.47 148.346 1801.89 141.512C1786.47 139.507 1788.34 125.923 1800.36 127.338C1804.03 127.77 1807.61 129.264 1811.28 128.921C1819.76 128.13 1824.39 117.002 1820.76 109.3C1802.86 71.221 1732.56 141.027 1603.3 149.211C1556.25 152.19 1562.45 147.927 1532.05 138.007C1477.94 121.592 1410.96 27.338 1354.15 59.482C1350.28 61.832 1350.25 66.837 1348.9 70.68C1350.03 67.481 1384.03 94.214 1386.61 97.378C1396.97 110.128 1406.4 121.104 1424.78 119.945C1412.49 85.379 1436.52 82.783 1445.93 87.261C1476.38 101.744 1454.75 175.089 1366.1 130.016C1334.1 141.626 1346.55 153.726 1299.74 129.352C1217.34 178.084 1192.13 108.81 1218.38 90.103C1228.01 83.243 1247.47 85.896 1246.78 105.411C1246.66 108.593 1243.16 115.335 1243.94 117.98C1245.72 123.959 1262.72 127.919 1282.01 96.395C1290.82 81.991 1298.97 74.938 1316.02 72.946C1315.42 68.011 1317.89 62.628 1290.02 56.376C1255.24 48.573 1229.42 68.064 1206.53 86.19C1118.48 163.928 1074.38 161.294 957.179 124.405C929.281 115.624 902.331 102.849 873.517 97.36C844.923 93.12 833.38 117.364 838.432 124.798C846.373 136.481 867.278 114.137 870.972 127.504C873.821 137.814 849.418 154.149 829.496 139.625C814.55 128.728 815.025 107.58 832.976 96.006C848.941 85.713 866.559 89.861 865.251 81.848C864.874 79.538 862.373 78.318 860.19 77.471C836.797 68.4 803.512 49.542 764.328 86.716C763.194 92.854 768.78 97.361 770.909 102.642C786.255 134.408 755.223 151.778 739.886 142.264C724.07 129.739 724.015 104.688 737.563 90.421C701.56 82.149 697.956 96.546 642.113 116.699C545.62 151.522 537.415 108.59 530.992 101.149C516.642 99.822 501.739 104.661 491.038 114.338C486.144 118.098 480.752 124.624 473.84 121.555C468.199 115.804 464.826 106.569 455.729 105.546C421.182 101.661 54.1241 107 49.0981 101.881C15.2811 67.387 430.098 93.753 460.678 84.145C471.9 80.621 473.093 54.981 493 74.012C501.655 82.287 512.091 83.643 523.142 87.326C524.326 87.721 537.853 70.356 539.865 68.314C571.669 36.042 586.027 61.005 573.856 69.357C570.706 71.519 566.794 72.147 563.088 73.079C555.061 75.097 554.298 78.058 552.671 85.28C594.622 83.699 614.527 59.212 684.809 45.133ZM604.127 86.469C587.814 92.607 570.007 93.381 553.888 99.99C552.284 107.262 562.321 107.87 567.049 110.331C596.247 117.354 624.394 102.451 650.33 90.921C669.989 83.594 690.09 76.654 710.966 73.916C723.878 74.054 736.459 78.976 749.51 78.036C757.86 74.082 765.602 68.967 773.952 65.013C773.98 61.944 774.007 58.875 774.007 55.806C754.127 55.336 734.219 55.834 714.367 56.221C676.514 61.529 639.878 73.28 604.127 86.469ZM857.37 55.806C857.729 57.354 858.448 60.479 858.78 62.027C869.757 63.852 880.457 67.004 890.688 71.373C933.075 87.161 972.254 110.746 1015.8 123.465C1040.94 132.672 1067.78 137.898 1094.55 133.778C1102.82 131.898 1113.63 132.7 1118.55 124.377C1107.9 123.907 1097.51 126.561 1086.97 127.087C1063.33 124.488 1043.26 110.857 1022.72 100.129C1007.59 93.604 994.264 83.622 978.973 77.484C941.425 59.566 898.872 50.939 857.37 55.806ZM1695.51 74.746C1673.26 82.681 1652.74 94.515 1631.86 105.354C1617.4 115.059 1601.62 122.469 1585.05 127.806C1585 128.912 1584.89 131.152 1584.83 132.258C1595.37 136.24 1606.95 135.355 1617.76 133.06C1639.99 127.641 1662.61 122.608 1683.1 111.991C1721.37 96.452 1758.28 77.678 1796.85 62.885C1796.96 61.06 1797.18 57.41 1797.29 55.585C1762.43 53.041 1727.09 59.843 1695.51 74.746ZM1904.96 55.972C1905.37 69.576 1920.44 77.953 1932.94 76.875C1974.55 78.589 2011.38 99.769 2050.4 111.686C2067.4 117.188 2086.98 116.912 2102.41 107.069C2100.58 104.304 2099.53 99.88 2095.52 99.769C2081.64 97.004 2067.29 96.396 2053.8 91.944C2026.73 82.405 1999.91 71.898 1971.68 66.119C1950.03 59.428 1927.36 58.184 1904.96 55.972ZM2162.13 98.303C2167.35 99.298 2173.93 103.556 2178.55 98.745C2184.75 95.151 2178.28 86.607 2173.24 86.054C2166.41 85.474 2163.84 93.133 2162.13 98.303ZM479.898 89.538C479.069 90.174 477.382 91.391 476.552 91.999C471.879 104.414 494.027 105.243 494.635 94.294C490.847 90.478 485.372 87.133 479.898 89.538ZM1900.76 103.28C1899.9 109.003 1900.67 114.782 1901.2 120.506C1904.6 120.174 1908.5 121.446 1911.62 119.566C1918.67 113.649 1915.49 103.474 1915.99 95.511C1909.8 95.234 1903.94 97.861 1900.76 103.28ZM745.445 100.156C744.533 108.036 745.777 115.889 747.712 123.52C750.836 123.382 753.961 123.244 757.113 123.078C757.942 114.34 757.998 98.469 745.445 100.156Z" fill="#186A98"/>
<path d="M1177.51 84.665C1178.08 85.235 1178.08 85.235 1177.51 84.665V84.665Z" fill="#186A98"/>
</svg>
